<svg width="83" height="81" viewBox="0 0 83 81" fill="none" xmlns="http://www.w3.org/2000/svg">
<g clip-path="url(#clip0)">
<path d="M39.6953 1.6875C16.7666 1.6875 -1.80469 19.5075 -1.80469 41.4855C-1.80469 59.0726 10.0851 73.9867 26.5709 79.245C28.6459 79.6196 29.4068 78.3877 29.4068 77.3314C29.4068 76.3864 29.3722 73.8821 29.3549 70.5645C17.811 72.9641 15.3763 65.2253 15.3763 65.2253C13.4881 60.6319 10.7594 59.4034 10.7594 59.4034C7.00023 56.9362 11.0499 56.9869 11.0499 56.9869C15.2172 57.2636 17.4064 61.0875 17.4064 61.0875C21.1068 67.1726 27.1208 65.4142 29.4932 64.3984C29.8667 61.8232 30.9354 60.0716 32.1216 59.076C22.9051 58.0804 13.2183 54.6581 13.2183 39.4099C13.2183 35.0662 14.8264 31.5157 17.4894 28.7314C17.0225 27.7256 15.6219 23.679 17.8525 18.198C17.8525 18.198 21.3281 17.1315 29.265 22.2784C32.585 21.3941 36.1125 20.9554 39.64 20.9351C43.1675 20.9554 46.695 21.3941 50.015 22.2784C57.9 17.1315 61.3756 18.198 61.3756 18.198C63.6062 23.679 62.2056 27.7256 61.7906 28.7314C64.4362 31.5157 66.0443 35.0662 66.0443 39.4099C66.0443 54.6986 56.3437 58.0635 47.11 59.0422C48.5625 60.237 49.9112 62.6771 49.9112 66.4065C49.9112 71.7323 49.8594 76.0117 49.8594 77.3044C49.8594 78.3473 50.5856 79.5926 52.7125 79.1944C69.3159 73.9699 81.1953 59.0456 81.1953 41.4855C81.1953 19.5075 62.6137 1.6875 39.6953 1.6875Z" fill="black"/>
</g>
<defs>
<clipPath id="clip0">
<rect width="83" height="81" fill="white"/>
</clipPath>
</defs>
</svg>
