<svg width="60" height="84" viewBox="0 0 60 84" fill="none" xmlns="http://www.w3.org/2000/svg">
<path d="M5.41578 77.2532L0 16.5079H59.5112L54.0894 77.2436L29.7191 84L5.41578 77.2532Z" fill="#E44D26"/>
<path d="M29.7556 78.8358L49.4479 73.376L54.0813 21.4749H29.7556V78.8358Z" fill="#F16529"/>
<path d="M29.7556 44.0044H19.8973L19.2163 36.3754H29.7556V28.9251H11.074L11.2525 30.9239L13.0836 51.4544H29.7556V44.0044ZM29.7556 63.3531L29.7229 63.3621L21.4257 61.1215L20.8952 55.1798H13.4165L14.4604 66.8777L29.7215 71.1142L29.7556 71.1046V63.3531Z" fill="#EBEBEB"/>
<path d="M5.53693 0H9.32292V3.74055H12.7862V0H16.5723V11.3274H12.7862V7.53438H9.32292V11.3274H5.5372L5.53693 0ZM21.5514 3.75651H18.2185V0H28.6726V3.75651H25.338V11.3274H21.5515V3.75651H21.5514ZM30.3314 0H34.2795L36.7079 3.98021L39.1341 0H43.0835V11.3274H39.3124V5.7128L36.7075 9.74035H36.6425L34.0359 5.7128V11.3274H30.3313V0H30.3314ZM44.9674 0H48.7545V7.58334H54.0791V11.3274H44.9674V0Z" fill="black"/>
<path d="M29.7299 44.0044V51.4544H38.9041L38.0392 61.1169L29.7299 63.3594V71.1103L45.0032 66.8777L45.1149 65.6186L46.8659 46.0051L47.0477 44.0044H45.0402H29.7299ZM29.7299 28.9251V36.3754H47.7257L47.8749 34.7007L48.2144 30.9239L48.3926 28.9251H29.7299Z" fill="white"/>
</svg>
