<svg width="73" height="73" viewBox="0 0 73 73" fill="none" xmlns="http://www.w3.org/2000/svg">
<path d="M0 0H73V73H0V0Z" fill="#F7DF1E"/>
<path d="M19.1944 61.0041L24.7806 57.6232C25.8585 59.5341 26.8389 61.1509 29.1906 61.1509C31.4447 61.1509 32.8663 60.2692 32.8663 56.8393V33.5141H39.7263V56.9363C39.7263 64.0415 35.5613 67.2758 29.4846 67.2758C23.9968 67.2758 20.8113 64.4336 19.1942 61.0035L19.1944 61.0041ZM43.4524 60.2689L49.038 57.035C50.5086 59.4363 52.4197 61.2002 55.8005 61.2002C58.6432 61.2002 60.4557 59.779 60.4557 57.8189C60.4557 55.4669 58.5936 54.6337 55.4575 53.2621L53.7428 52.5264C48.7934 50.4199 45.5104 47.7737 45.5104 42.1874C45.5104 37.0421 49.4304 33.1217 55.5558 33.1217C59.917 33.1217 63.0532 34.6411 65.307 38.6102L59.9655 42.0406C58.7892 39.9336 57.5157 39.1006 55.5556 39.1006C53.5463 39.1006 52.2723 40.3747 52.2723 42.0406C52.2723 44.0986 53.5463 44.9321 56.4863 46.2061L58.2012 46.941C64.0327 49.4404 67.3157 51.9883 67.3157 57.721C67.3157 63.8958 62.4646 67.2766 55.9474 67.2766C49.5773 67.2766 45.461 64.2386 43.4521 60.2692" fill="black"/>
</svg>
