<svg width="93" height="82" viewBox="0 0 93 82" fill="none" xmlns="http://www.w3.org/2000/svg">
<path d="M92.0787 41.0094C92.0787 34.9096 84.4399 29.1289 72.7283 25.5441C75.431 13.6072 74.2298 4.11032 68.9371 1.06981C67.7171 0.356603 66.2907 0.0187683 64.7329 0.0187683V4.20417C65.5962 4.20417 66.2907 4.37308 66.8725 4.69215C69.425 6.1561 70.5324 11.7304 69.669 18.9C69.4626 20.6642 69.1247 22.5223 68.7118 24.4179C65.0332 23.5171 61.0167 22.8226 56.7938 22.3722C54.26 18.9 51.6324 15.7469 48.986 12.9879C55.1046 7.30098 60.8478 4.1854 64.7517 4.1854V0C59.5903 0 52.8336 3.67865 46.0018 10.06C39.1701 3.71618 32.4134 0.0750747 27.252 0.0750747V4.26047C31.1371 4.26047 36.8991 7.35729 43.0176 13.0066C40.39 15.7656 37.7624 18.9 35.2662 22.3722C31.0245 22.8226 27.008 23.517 23.3294 24.4367C22.8977 22.5599 22.5786 20.7393 22.3534 18.9938C21.4713 11.8242 22.5599 6.24994 25.0936 4.76722C25.6567 4.42939 26.3886 4.27924 27.252 4.27924V0.093843C25.6754 0.093843 24.249 0.431677 23.0103 1.14488C17.7363 4.1854 16.5539 13.6635 19.2753 25.5628C7.60128 29.1664 0 34.9284 0 41.0094C0 47.1092 7.63882 52.8899 19.3504 56.4747C16.6477 68.4115 17.8489 77.9084 23.1417 80.9489C24.3616 81.6622 25.7881 82 27.3646 82C32.526 82 39.2827 78.3213 46.1144 71.94C52.9462 78.2838 59.7029 81.9249 64.8643 81.9249C66.4408 81.9249 67.8673 81.5871 69.106 80.8739C74.38 77.8334 75.5624 68.3552 72.8409 56.4559C84.4775 52.8711 92.0787 47.0904 92.0787 41.0094V41.0094ZM67.642 28.4907C66.9476 30.9119 66.0842 33.4081 65.1083 35.9043C64.3387 34.4028 63.5317 32.9013 62.6496 31.3999C61.7862 29.8984 60.8666 28.4344 59.9469 27.008C62.612 27.4021 65.1833 27.8901 67.642 28.4907ZM59.046 48.4793C57.5821 51.013 56.0806 53.4154 54.5228 55.6489C51.7263 55.8929 48.8922 56.0243 46.0394 56.0243C43.2053 56.0243 40.3713 55.8929 37.5935 55.6677C36.0357 53.4342 34.5155 51.0506 33.0515 48.5356C31.6251 46.0769 30.3301 43.5807 29.1476 41.0657C30.3113 38.5507 31.6251 36.0357 33.0327 33.577C34.4967 31.0433 35.9982 28.6409 37.556 26.4074C40.3525 26.1634 43.1865 26.032 46.0394 26.032C48.8734 26.032 51.7075 26.1634 54.4852 26.3886C56.043 28.6221 57.5633 31.0057 59.0272 33.5207C60.4537 35.9794 61.7487 38.4756 62.9311 40.9906C61.7487 43.5056 60.4537 46.0206 59.046 48.4793ZM65.1083 46.0394C66.1218 48.5544 66.9851 51.0693 67.6983 53.5093C65.2396 54.1099 62.6496 54.6166 59.9657 55.0108C60.8853 53.5656 61.805 52.0829 62.6684 50.5626C63.5317 49.0611 64.3387 47.5408 65.1083 46.0394ZM46.0769 66.0655C44.3314 64.2637 42.5859 62.2554 40.8592 60.0595C42.5484 60.1346 44.2751 60.1909 46.0206 60.1909C47.7849 60.1909 49.5303 60.1533 51.2383 60.0595C49.5491 62.2554 47.8036 64.2637 46.0769 66.0655ZM32.1131 55.0108C29.4479 54.6166 26.8766 54.1286 24.4179 53.528C25.1124 51.1069 25.9757 48.6107 26.9517 46.1144C27.7212 47.6159 28.5283 49.1174 29.4104 50.6189C30.2925 52.1204 31.1934 53.5843 32.1131 55.0108ZM45.9831 15.9533C47.7285 17.7551 49.474 19.7633 51.2007 21.9593C49.5116 21.8842 47.7849 21.8279 46.0394 21.8279C44.2751 21.8279 42.5296 21.8654 40.8217 21.9593C42.5109 19.7633 44.2564 17.7551 45.9831 15.9533ZM32.0943 27.008C31.1746 28.4532 30.255 29.9359 29.3916 31.4562C28.5283 32.9577 27.7212 34.4591 26.9517 35.9606C25.9382 33.4456 25.0748 30.9306 24.3616 28.4907C26.8203 27.9089 29.4104 27.4021 32.0943 27.008V27.008ZM15.1087 50.5063C8.46464 47.6722 4.16663 43.956 4.16663 41.0094C4.16663 38.0627 8.46464 34.3278 15.1087 31.5125C16.7228 30.818 18.4871 30.1987 20.3076 29.6168C21.3774 33.2955 22.7851 37.1243 24.5306 41.0469C22.8038 44.9508 21.415 48.7608 20.3639 52.4207C18.5058 51.8389 16.7416 51.2007 15.1087 50.5063ZM25.2062 77.3266C22.6537 75.8627 21.5464 70.2884 22.4097 63.1188C22.6162 61.3545 22.954 59.4964 23.3669 57.6008C27.0456 58.5017 31.062 59.1961 35.285 59.6466C37.8187 63.1188 40.4463 66.2719 43.0927 69.0309C36.9741 74.7178 31.2309 77.8334 27.3271 77.8334C26.4825 77.8146 25.7693 77.6457 25.2062 77.3266V77.3266ZM69.7253 63.0249C70.6075 70.1945 69.5189 75.7688 66.9851 77.2515C66.4221 77.5894 65.6901 77.7395 64.8267 77.7395C60.9416 77.7395 55.1797 74.6427 49.0611 68.9934C51.6887 66.2344 54.3163 63.1 56.8125 59.6278C61.0543 59.1774 65.0707 58.4829 68.7494 57.5633C69.1811 59.4589 69.5189 61.2795 69.7253 63.0249V63.0249ZM76.9513 50.5063C75.3372 51.2007 73.5729 51.8201 71.7523 52.4019C70.6825 48.7233 69.2749 44.8945 67.5294 40.9718C69.2561 37.068 70.645 33.258 71.696 29.5981C73.5541 30.1799 75.3184 30.818 76.97 31.5125C83.6141 34.3465 87.9121 38.0627 87.9121 41.0094C87.8933 43.956 83.5953 47.691 76.9513 50.5063V50.5063Z" fill="#61DAFB"/>
<path d="M46.0206 49.5866C50.7577 49.5866 54.5979 45.7465 54.5979 41.0094C54.5979 36.2723 50.7577 32.4321 46.0206 32.4321C41.2835 32.4321 37.4434 36.2723 37.4434 41.0094C37.4434 45.7465 41.2835 49.5866 46.0206 49.5866Z" fill="#61DAFB"/>
</svg>
